<svg xmlns="http://www.w3.org/2000/svg" xmlns:xlink="http://www.w3.org/1999/xlink" contentStyleType="text/css" height="696px" preserveAspectRatio="none" style="width:1006px;height:696px;background:#FFFFFF;" version="1.1" viewBox="0 0 1006 696" width="1006px" zoomAndPan="magnify"><title>Multithreading Cisco IOS: From Monolith to Parallel Execution</title><defs/><g><text fill="#000000" font-family="sans-serif" font-size="14" font-weight="bold" lengthAdjust="spacing" textLength="443.8232" x="274.298" y="23.5352">Multithreading Cisco IOS: From Monolith to Parallel Execution</text><!--entity IF_In--><g id="elem_IF_In"><rect fill="#F1F1F1" height="39.4883" rx="2.5" ry="2.5" style="stroke:#181818;stroke-width:0.5;" width="150.0869" x="618.28" y="44.4883"/><polygon fill="#F1F1F1" points="751.3669,49.4883,751.3669,63.4883,763.3669,63.4883,763.3669,55.4883,757.3669,49.4883,751.3669,49.4883" style="stroke:#181818;stroke-width:0.5;"/><line style="stroke:#181818;stroke-width:0.5;" x1="757.3669" x2="757.3669" y1="49.4883" y2="55.4883"/><line style="stroke:#181818;stroke-width:0.5;" x1="763.3669" x2="757.3669" y1="55.4883" y2="55.4883"/><text fill="#000000" font-family="sans-serif" font-size="14" lengthAdjust="spacing" textLength="120.0869" x="628.28" y="71.0234">Inbound Interface</text></g><!--entity Inbound--><g id="elem_Inbound"><polygon fill="#CFE2F3" points="611.44,153.9783,621.44,143.9783,775.191,143.9783,775.191,180.0769,765.191,190.0769,611.44,190.0769,611.44,153.9783" style="stroke:#000000;stroke-width:0.5;"/><line style="stroke:#000000;stroke-width:0.5;" x1="765.191" x2="775.191" y1="153.9783" y2="143.9783"/><line style="stroke:#000000;stroke-width:0.5;" x1="611.44" x2="765.191" y1="153.9783" y2="153.9783"/><line style="stroke:#000000;stroke-width:0.5;" x1="765.191" x2="765.191" y1="153.9783" y2="190.0769"/><text fill="#000000" font-family="Arial" font-size="14" lengthAdjust="spacing" textLength="123.751" x="626.44" y="177.1101">Inbound Processing</text></g><!--entity MQ1--><g id="elem_MQ1"><path d="M406.95,250.0783 L561.6873,250.0783 C566.6873,250.0783 566.6873,263.1276 566.6873,263.1276 C566.6873,263.1276 566.6873,276.1769 561.6873,276.1769 L406.95,276.1769 C401.95,276.1769 401.95,263.1276 401.95,263.1276 C401.95,263.1276 401.95,250.0783 406.95,250.0783 " fill="#D0F0C0" style="stroke:#000000;stroke-width:0.5;"/><path d="M561.6873,250.0783 C556.6873,250.0783 556.6873,263.1276 556.6873,263.1276 C556.6873,276.1769 561.6873,276.1769 561.6873,276.1769 " fill="none" style="stroke:#000000;stroke-width:0.5;"/><text fill="#000000" font-family="Arial" font-size="14" lengthAdjust="spacing" textLength="144.7373" x="406.95" y="268.2101">MQ: Inbound &#8594; Router</text></g><!--entity Router--><g id="elem_Router"><polygon fill="#CFE2F3" points="409.46,346.1783,419.46,336.1783,559.1768,336.1783,559.1768,372.2769,549.1768,382.2769,409.46,382.2769,409.46,346.1783" style="stroke:#000000;stroke-width:0.5;"/><line style="stroke:#000000;stroke-width:0.5;" x1="549.1768" x2="559.1768" y1="346.1783" y2="336.1783"/><line style="stroke:#000000;stroke-width:0.5;" x1="409.46" x2="549.1768" y1="346.1783" y2="346.1783"/><line style="stroke:#000000;stroke-width:0.5;" x1="549.1768" x2="549.1768" y1="346.1783" y2="382.2769"/><text fill="#000000" font-family="Arial" font-size="14" lengthAdjust="spacing" textLength="109.7168" x="424.46" y="369.3101">Routing / Filtering</text></g><!--entity MQ2--><g id="elem_MQ2"><path d="M105.51,442.2783 L271.137,442.2783 C276.137,442.2783 276.137,455.3276 276.137,455.3276 C276.137,455.3276 276.137,468.3769 271.137,468.3769 L105.51,468.3769 C100.51,468.3769 100.51,455.3276 100.51,455.3276 C100.51,455.3276 100.51,442.2783 105.51,442.2783 " fill="#D0F0C0" style="stroke:#000000;stroke-width:0.5;"/><path d="M271.137,442.2783 C266.137,442.2783 266.137,455.3276 266.137,455.3276 C266.137,468.3769 271.137,468.3769 271.137,468.3769 " fill="none" style="stroke:#000000;stroke-width:0.5;"/><text fill="#000000" font-family="Arial" font-size="14" lengthAdjust="spacing" textLength="155.627" x="105.51" y="460.4101">MQ: Router &#8594; Outbound</text></g><!--entity Outbound--><g id="elem_Outbound"><polygon fill="#CFE2F3" points="16,546.4183,26,536.4183,190.6406,536.4183,190.6406,572.5169,180.6406,582.5169,16,582.5169,16,546.4183" style="stroke:#000000;stroke-width:0.5;"/><line style="stroke:#000000;stroke-width:0.5;" x1="180.6406" x2="190.6406" y1="546.4183" y2="536.4183"/><line style="stroke:#000000;stroke-width:0.5;" x1="16" x2="180.6406" y1="546.4183" y2="546.4183"/><line style="stroke:#000000;stroke-width:0.5;" x1="180.6406" x2="180.6406" y1="546.4183" y2="582.5169"/><text fill="#000000" font-family="Arial" font-size="14" lengthAdjust="spacing" textLength="134.6406" x="31" y="569.5501">Outbound Processing</text></g><!--entity IF_Out--><g id="elem_IF_Out"><rect fill="#F1F1F1" height="39.4883" rx="2.5" ry="2.5" style="stroke:#181818;stroke-width:0.5;" width="162.166" x="22.24" y="650.5683"/><polygon fill="#F1F1F1" points="167.406,655.5683,167.406,669.5683,179.406,669.5683,179.406,661.5683,173.406,655.5683,167.406,655.5683" style="stroke:#181818;stroke-width:0.5;"/><line style="stroke:#181818;stroke-width:0.5;" x1="173.406" x2="173.406" y1="655.5683" y2="661.5683"/><line style="stroke:#181818;stroke-width:0.5;" x1="179.406" x2="173.406" y1="661.5683" y2="661.5683"/><text fill="#000000" font-family="sans-serif" font-size="14" lengthAdjust="spacing" textLength="132.166" x="32.24" y="677.1034">Outbound Interface</text></g><!--entity Overhead--><g id="elem_Overhead"><polygon fill="#F9CB9C" points="686.3,538.3683,696.3,528.3683,838.3479,528.3683,838.3479,580.5655,828.3479,590.5655,686.3,590.5655,686.3,538.3683" style="stroke:#000000;stroke-width:0.5;"/><line style="stroke:#000000;stroke-width:0.5;" x1="828.3479" x2="838.3479" y1="538.3683" y2="528.3683"/><line style="stroke:#000000;stroke-width:0.5;" x1="686.3" x2="828.3479" y1="538.3683" y2="538.3683"/><line style="stroke:#000000;stroke-width:0.5;" x1="828.3479" x2="828.3479" y1="538.3683" y2="590.5655"/><text fill="#000000" font-family="Arial" font-size="14" lengthAdjust="spacing" textLength="112.0479" x="701.3" y="561.5001">System Overhead</text><text fill="#000000" font-family="Arial" font-size="14" lengthAdjust="spacing" textLength="108.1377" x="703.2551" y="577.5988">(Heap Mgmt, etc)</text></g><!--entity MQ_IO_1--><g id="elem_MQ_IO_1"><path d="M606.22,250.0783 L780.4192,250.0783 C785.4192,250.0783 785.4192,263.1276 785.4192,263.1276 C785.4192,263.1276 785.4192,276.1769 780.4192,276.1769 L606.22,276.1769 C601.22,276.1769 601.22,263.1276 601.22,263.1276 C601.22,263.1276 601.22,250.0783 606.22,250.0783 " fill="#D0F0C0" style="stroke:#000000;stroke-width:0.5;"/><path d="M780.4192,250.0783 C775.4192,250.0783 775.4192,263.1276 775.4192,263.1276 C775.4192,276.1769 780.4192,276.1769 780.4192,276.1769 " fill="none" style="stroke:#000000;stroke-width:0.5;"/><text fill="#000000" font-family="Arial" font-size="14" lengthAdjust="spacing" textLength="164.1992" x="606.22" y="268.2101">MQ: Inbound &#8594; Overhead</text></g><!--entity MQ_IO_2--><g id="elem_MQ_IO_2"><path d="M820.22,442.2783 L994.4192,442.2783 C999.4192,442.2783 999.4192,455.3276 999.4192,455.3276 C999.4192,455.3276 999.4192,468.3769 994.4192,468.3769 L820.22,468.3769 C815.22,468.3769 815.22,455.3276 815.22,455.3276 C815.22,455.3276 815.22,442.2783 820.22,442.2783 " fill="#D0F0C0" style="stroke:#000000;stroke-width:0.5;"/><path d="M994.4192,442.2783 C989.4192,442.2783 989.4192,455.3276 989.4192,455.3276 C989.4192,468.3769 994.4192,468.3769 994.4192,468.3769 " fill="none" style="stroke:#000000;stroke-width:0.5;"/><text fill="#000000" font-family="Arial" font-size="14" lengthAdjust="spacing" textLength="164.1992" x="820.22" y="460.4101">MQ: Overhead &#8594; Inbound</text></g><!--entity MQ_RO_1--><g id="elem_MQ_RO_1"><path d="M401.51,442.2783 L567.1233,442.2783 C572.1233,442.2783 572.1233,455.3276 572.1233,455.3276 C572.1233,455.3276 572.1233,468.3769 567.1233,468.3769 L401.51,468.3769 C396.51,468.3769 396.51,455.3276 396.51,455.3276 C396.51,455.3276 396.51,442.2783 401.51,442.2783 " fill="#D0F0C0" style="stroke:#000000;stroke-width:0.5;"/><path d="M567.1233,442.2783 C562.1233,442.2783 562.1233,455.3276 562.1233,455.3276 C562.1233,468.3769 567.1233,468.3769 567.1233,468.3769 " fill="none" style="stroke:#000000;stroke-width:0.5;"/><text fill="#000000" font-family="Arial" font-size="14" lengthAdjust="spacing" textLength="155.6133" x="401.51" y="460.4101">MQ: Router &#8594; Overhead</text></g><!--entity MQ_RO_2--><g id="elem_MQ_RO_2"><path d="M683.51,346.1783 L849.1233,346.1783 C854.1233,346.1783 854.1233,359.2276 854.1233,359.2276 C854.1233,359.2276 854.1233,372.2769 849.1233,372.2769 L683.51,372.2769 C678.51,372.2769 678.51,359.2276 678.51,359.2276 C678.51,359.2276 678.51,346.1783 683.51,346.1783 " fill="#D0F0C0" style="stroke:#000000;stroke-width:0.5;"/><path d="M849.1233,346.1783 C844.1233,346.1783 844.1233,359.2276 844.1233,359.2276 C844.1233,372.2769 849.1233,372.2769 849.1233,372.2769 " fill="none" style="stroke:#000000;stroke-width:0.5;"/><text fill="#000000" font-family="Arial" font-size="14" lengthAdjust="spacing" textLength="155.6133" x="683.51" y="364.3101">MQ: Overhead &#8594; Router</text></g><!--entity MQ_OO_1--><g id="elem_MQ_OO_1"><path d="M230.78,546.4183 L415.8689,546.4183 C420.8689,546.4183 420.8689,559.4676 420.8689,559.4676 C420.8689,559.4676 420.8689,572.5169 415.8689,572.5169 L230.78,572.5169 C225.78,572.5169 225.78,559.4676 225.78,559.4676 C225.78,559.4676 225.78,546.4183 230.78,546.4183 " fill="#D0F0C0" style="stroke:#000000;stroke-width:0.5;"/><path d="M415.8689,546.4183 C410.8689,546.4183 410.8689,559.4676 410.8689,559.4676 C410.8689,572.5169 415.8689,572.5169 415.8689,572.5169 " fill="none" style="stroke:#000000;stroke-width:0.5;"/><text fill="#000000" font-family="Arial" font-size="14" lengthAdjust="spacing" textLength="175.0889" x="230.78" y="564.5501">MQ: Outbound &#8594; Overhead</text></g><!--entity MQ_OO_2--><g id="elem_MQ_OO_2"><path d="M460.78,546.4183 L645.8689,546.4183 C650.8689,546.4183 650.8689,559.4676 650.8689,559.4676 C650.8689,559.4676 650.8689,572.5169 645.8689,572.5169 L460.78,572.5169 C455.78,572.5169 455.78,559.4676 455.78,559.4676 C455.78,559.4676 455.78,546.4183 460.78,546.4183 " fill="#D0F0C0" style="stroke:#000000;stroke-width:0.5;"/><path d="M645.8689,546.4183 C640.8689,546.4183 640.8689,559.4676 640.8689,559.4676 C640.8689,572.5169 645.8689,572.5169 645.8689,572.5169 " fill="none" style="stroke:#000000;stroke-width:0.5;"/><text fill="#000000" font-family="Arial" font-size="14" lengthAdjust="spacing" textLength="175.0889" x="460.78" y="564.5501">MQ: Overhead &#8594; Outbound</text></g><!--link IF_In to Inbound--><g id="link_IF_In_Inbound"><path d="M693.32,84.1883 C693.32,101.0683 693.32,119.7883 693.32,137.6383 " fill="none" id="IF_In-to-Inbound" style="stroke:#181818;stroke-width:1.0;"/><polygon fill="#181818" points="693.32,143.6383,697.32,134.6383,693.32,138.6383,689.32,134.6383,693.32,143.6383" style="stroke:#181818;stroke-width:1.0;"/></g><!--link Inbound to MQ1--><g id="link_Inbound_MQ1"><path d="M643.26,190.5683 C602.2,209.0483 551.0509,232.0847 517.6509,247.1247 " fill="none" id="Inbound-to-MQ1" style="stroke:#181818;stroke-width:1.0;"/><polygon fill="#181818" points="512.18,249.5883,522.0287,249.5402,516.7391,247.5353,518.744,242.2457,512.18,249.5883" style="stroke:#181818;stroke-width:1.0;"/></g><!--link MQ1 to Router--><g id="link_MQ1_Router"><path d="M484.32,276.4283 C484.32,291.4683 484.32,311.2283 484.32,329.8283 " fill="none" id="MQ1-to-Router" style="stroke:#181818;stroke-width:1.0;"/><polygon fill="#181818" points="484.32,335.8283,488.32,326.8283,484.32,330.8283,480.32,326.8283,484.32,335.8283" style="stroke:#181818;stroke-width:1.0;"/></g><!--link Router to MQ2--><g id="link_Router_MQ2"><path d="M413.42,382.7683 C355.27,401.2483 280.808,424.9205 233.498,439.9605 " fill="none" id="Router-to-MQ2" style="stroke:#181818;stroke-width:1.0;"/><polygon fill="#181818" points="227.78,441.7783,237.5689,442.8636,232.545,440.2635,235.1452,435.2396,227.78,441.7783" style="stroke:#181818;stroke-width:1.0;"/></g><!--link MQ2 to Outbound--><g id="link_MQ2_Outbound"><path d="M177.9,468.8483 C163.98,485.5783 142.9171,510.8857 125.7471,531.5257 " fill="none" id="MQ2-to-Outbound" style="stroke:#181818;stroke-width:1.0;"/><polygon fill="#181818" points="121.91,536.1383,130.7408,531.7774,125.1076,532.2944,124.5906,526.6612,121.91,536.1383" style="stroke:#181818;stroke-width:1.0;"/></g><!--link Outbound to IF_Out--><g id="link_Outbound_IF_Out"><path d="M103.32,582.7583 C103.32,602.6583 103.32,625.4983 103.32,644.3283 " fill="none" id="Outbound-to-IF_Out" style="stroke:#181818;stroke-width:1.0;"/><polygon fill="#181818" points="103.32,650.3283,107.32,641.3283,103.32,645.3283,99.32,641.3283,103.32,650.3283" style="stroke:#181818;stroke-width:1.0;"/></g><!--link Inbound to MQ_IO_1--><g id="link_Inbound_MQ_IO_1"><path d="M693.32,190.3283 C693.32,208.9183 693.32,228.7083 693.32,243.7883 " fill="none" id="Inbound-to-MQ_IO_1" style="stroke:#181818;stroke-width:1.0;"/><polygon fill="#181818" points="693.32,249.7883,697.32,240.7883,693.32,244.7883,689.32,240.7883,693.32,249.7883" style="stroke:#181818;stroke-width:1.0;"/></g><!--link MQ_IO_1 to Overhead--><g id="link_MQ_IO_1_Overhead"><path d="M685.84,276.5883 C677.94,290.5383 666.01,314.0883 661.32,336.1783 C657.07,356.2183 656.05,362.4783 661.32,382.2783 C676.15,437.9783 709.6644,489.58 734.5244,523.08 " fill="none" id="MQ_IO_1-to-Overhead" style="stroke:#181818;stroke-width:1.0;"/><polygon fill="#181818" points="738.1,527.8983,735.9488,518.2872,735.1204,523.8831,729.5245,523.0546,738.1,527.8983" style="stroke:#181818;stroke-width:1.0;"/></g><!--reverse link MQ_IO_2 to Overhead--><g id="link_MQ_IO_2_Overhead"><path d="M884.6346,472.3033 C863.8346,486.9533 833.59,508.2683 805.49,528.0583 " fill="none" id="MQ_IO_2-backto-Overhead" style="stroke:#181818;stroke-width:1.0;"/><polygon fill="#181818" points="889.54,468.8483,879.8786,470.7605,885.4522,471.7275,884.4852,477.3011,889.54,468.8483" style="stroke:#181818;stroke-width:1.0;"/></g><!--reverse link Inbound to MQ_IO_2--><g id="link_Inbound_MQ_IO_2"><path d="M733.068,193.8674 C755.678,209.2774 780.18,227.5683 803.32,250.0783 C838.27,284.0783 848.71,292.9683 871.32,336.1783 C890.21,372.2683 900.89,419.8683 905.14,442.0083 " fill="none" id="Inbound-backto-MQ_IO_2" style="stroke:#181818;stroke-width:1.0;"/><polygon fill="#181818" points="728.11,190.4883,733.2942,198.8623,732.2416,193.3042,737.7997,192.2517,728.11,190.4883" style="stroke:#181818;stroke-width:1.0;"/></g><!--link Router to MQ_RO_1--><g id="link_Router_MQ_RO_1"><path d="M484.32,382.5283 C484.32,401.1083 484.32,420.8983 484.32,435.9783 " fill="none" id="Router-to-MQ_RO_1" style="stroke:#181818;stroke-width:1.0;"/><polygon fill="#181818" points="484.32,441.9783,488.32,432.9783,484.32,436.9783,480.32,432.9783,484.32,441.9783" style="stroke:#181818;stroke-width:1.0;"/></g><!--link MQ_RO_1 to Overhead--><g id="link_MQ_RO_1_Overhead"><path d="M518.41,468.8483 C559.88,484.0883 625.488,508.1992 680.308,528.3392 " fill="none" id="MQ_RO_1-to-Overhead" style="stroke:#181818;stroke-width:1.0;"/><polygon fill="#181818" points="685.94,530.4083,678.8715,523.55,681.2467,528.684,676.1127,531.0593,685.94,530.4083" style="stroke:#181818;stroke-width:1.0;"/></g><!--reverse link MQ_RO_2 to Overhead--><g id="link_MQ_RO_2_Overhead"><path d="M765.9491,378.6271 C765.3291,409.3971 763.82,483.9483 762.93,528.2283 " fill="none" id="MQ_RO_2-backto-Overhead" style="stroke:#181818;stroke-width:1.0;"/><polygon fill="#181818" points="766.07,372.6283,761.8895,381.5459,765.9693,377.6273,769.8879,381.707,766.07,372.6283" style="stroke:#181818;stroke-width:1.0;"/></g><!--reverse link Router to MQ_RO_2--><g id="link_Router_MQ_RO_2"><path d="M565.5,359.2283 C605.09,359.2283 638.67,359.2283 678.26,359.2283 " fill="none" id="Router-backto-MQ_RO_2" style="stroke:#181818;stroke-width:1.0;"/><polygon fill="#181818" points="559.5,359.2283,568.5,363.2283,564.5,359.2283,568.5,355.2283,559.5,359.2283" style="stroke:#181818;stroke-width:1.0;"/></g><!--link Outbound to MQ_OO_1--><g id="link_Outbound_MQ_OO_1"><path d="M190.98,559.4683 C202.44,559.4683 207.9,559.4683 219.35,559.4683 " fill="none" id="Outbound-to-MQ_OO_1" style="stroke:#181818;stroke-width:1.0;"/><polygon fill="#181818" points="225.35,559.4683,216.35,555.4683,220.35,559.4683,216.35,563.4683,225.35,559.4683" style="stroke:#181818;stroke-width:1.0;"/></g><!--link MQ_OO_1 to Overhead--><g id="link_MQ_OO_1_Overhead"><path d="M344.79,546.0083 C370.18,530.9583 414.25,507.4983 455.82,498.3683 C540.47,479.7983 566.86,476.8783 650.82,498.3683 C674.02,504.3083 692.4402,513.0928 711.9002,524.8128 " fill="none" id="MQ_OO_1-to-Overhead" style="stroke:#181818;stroke-width:1.0;"/><polygon fill="#181818" points="717.04,527.9083,711.3939,519.8385,712.7568,525.3287,707.2666,526.6916,717.04,527.9083" style="stroke:#181818;stroke-width:1.0;"/></g><!--reverse link MQ_OO_2 to Overhead--><g id="link_MQ_OO_2_Overhead"><path d="M657.29,559.4683 C668.85,559.4683 674.42,559.4683 685.99,559.4683 " fill="none" id="MQ_OO_2-backto-Overhead" style="stroke:#181818;stroke-width:1.0;"/><polygon fill="#181818" points="651.29,559.4683,660.29,563.4683,656.29,559.4683,660.29,555.4683,651.29,559.4683" style="stroke:#181818;stroke-width:1.0;"/></g><!--reverse link Outbound to MQ_OO_2--><g id="link_Outbound_MQ_OO_2"><path d="M144.3109,532.9781 C167.8709,519.0081 194.82,505.6783 225.82,498.3683 C310.18,478.4983 336.17,479.7983 420.82,498.3683 C462.39,507.4983 506.46,530.9583 531.85,546.0083 " fill="none" id="Outbound-backto-MQ_OO_2" style="stroke:#181818;stroke-width:1.0;"/><polygon fill="#181818" points="139.15,536.0383,148.9315,534.8886,143.4508,533.4881,144.8513,528.0074,139.15,536.0383" style="stroke:#181818;stroke-width:1.0;"/></g><!--SRC=[ZLF1Jjj04BtxAqPmA4YD2ku93fKe8YA7O0XLJvNGPZrELgnttTrr8QrwvGDGlv0lwQozNYzfGKHA8i-yUM_cpTW99n7chNJ2hGsoKgWLd0hBDSoAwsEO6bt3N2ijAGzEmoKpJ4gKS7QFl7L2g-mTdAbA6uwKRoPEJvRQEIghfBxBAEJBGgWK1dbNP6-5QeYhXYNZjokZMrMUQgaDx5RT9q6KM37gy0lUknCfLgf6vO3J3vgCr2zqYM3THg9DYfIF_ie0fbgv2rOZd1Z190K-Rmlo2lFgeyzeKwBfeqj9iEntmlYznVQjbEL1TS0FNg2adcU- -OgHPxvF2tkbi4uexi2kMOFx6JDEKDx1pamjFV5OiWFCmcnwCrDPDsH4N1hDqLfQOG_fmrdVzyxywdW8mTF38onqIuGTSdvr6AXyq9_01vWAIUc1gmUdL7saOofQrz46hZnm3U7jlePuCcE4_ZCaPRnVnGyqQpfFq5Nbxycj4OnOhLtGkjvOXtM4VLDxvyWQcAzgznxGyVrUUM3PhOxuyeXtp0edTspJRzS27JBe0VRqy0UQs3piDRH0B66jZVX99q0lmcR_9Ni7hM3ApQouEKonnIZoE1GcsFmbhxTe5w_HFbknXpvZZQR_ZxTuZNThuHwSUo-_8csKCmar4wf__xixXKcfxzJaKpp9mQWXxW-Gll4vd5kOUqJbXChZSpoaE4dKYOTp7dSrhZMikY7gPBlMiHMEdNNNrOdsgml_Os9m98lMJ2HMOqaUIl8O7wQFSoKQYw2nUBl68cWiKetWN6998b84aUBj8aKGALAHQFnV]--></g></svg>
